<svg width="0" height="0" class="hidden">
  <symbol version="1.1" xmlns="http://www.w3.org/2000/svg" xmlns:xlink="http://www.w3.org/1999/xlink" x="0px" y="0px" enable-background="new 0 0 1000 1000" xml:space="preserve" viewBox="0 0 1000 1000" id="timer">
    <metadata>Svg Vector Icons : http://www.onlinewebfonts.com/icon</metadata>
    <g>
      <g>
        <path d="M920.6,569.4C920.6,801.7,732.3,990,500,990C267.7,990,79.4,801.7,79.4,569.4c0-225.2,177.1-408.5,399.6-419.5V77.3h-31.5c-18.6,0-33.7-15.1-33.7-33.7c0-18.6,15.1-33.6,33.7-33.6h100.9c18.6,0,33.7,15,33.7,33.6c0,18.6-15.1,33.7-33.7,33.7h-35.7v72.1C739.1,156.1,920.6,341.4,920.6,569.4z M479,279.2v-76.8c-104.2,5.9-196.5,54.9-260.2,129.3l55.4,55.4l-23.8,23.8L198,358.4c-42.7,60.2-68.1,133.6-68.1,213.1c0,3.6,0.5,8.4,0.5,8.4h81.5v33.7h-79.1c8.2,68.8,35.4,133.6,76,185.4l41.6-41.6l23.8,23.8l-43.4,43.5c63,66.9,150.4,110.5,248.2,116v-91.4h33.6V941c100.1-3.4,190-46.7,254.6-114.3L719.5,779l23.8-23.8l46.1,46.1c41.5-52.3,69.5-118,77.8-187.8h-85.4v-33.7h87.8c0.1-3.5,0.5-4.9,0.5-8.4c0-81.7-26.8-156.8-71.6-217.9l-55.2,55.2L719.5,385l57.8-57.8C712.1,253.4,618.1,205.5,512.7,202v77.2H479L479,279.2z M514.7,579.9h117.8c9.3,0,16.8,7.6,16.8,16.8c0,9.3-7.5,16.9-16.8,16.9H497.9c-9.3,0-16.8-7.6-16.8-16.9V363.3c0-9.3,7.5-16.8,16.8-16.8s16.8,7.5,16.8,16.8V579.9L514.7,579.9z"></path>
      </g>
    </g>
  </symbol>
</svg>