<svg width="0" height="0" class="hidden">
  <symbol fill="none" xmlns="http://www.w3.org/2000/svg" viewBox="0 0 131 123" id="leaves">
    <path fill-rule="evenodd" clip-rule="evenodd" d="M0.0810547 24.4671C7.15972 15.4632 17.331 7.17248 30.1906 0.0610352C45.367 31.7215 40.576 76.4365 0.0810547 85.3538V24.4671Z" fill="#FFECB3"></path>
    <path fill-rule="evenodd" clip-rule="evenodd" d="M0.0810547 85.4221C1.12651 82.9269 2.27942 79.6594 3.53068 75.84C5.40576 74.8046 7.35278 74.1526 8.84082 73.7601C9.60578 73.5588 10.2496 73.4258 10.7004 73.3439C10.9254 73.302 11.102 73.2738 11.2222 73.2555C11.2814 73.2464 11.327 73.2401 11.357 73.2355L11.3998 73.23C11.6548 73.1982 11.836 72.9669 11.8041 72.7119C11.7723 72.4578 11.541 72.2766 11.286 72.3084C11.2568 72.3139 7.64966 72.7565 3.94049 74.5797C4.43498 73.0479 4.94496 71.436 5.46951 69.7576C5.83742 68.5783 6.21171 67.3653 6.59328 66.125C7.62234 64.8846 9.50106 63.4011 11.8342 62.2409C14.212 61.0562 17.0606 60.1992 19.9856 60.201C20.9027 60.2001 21.8279 60.2848 22.7495 60.4679C23.0018 60.518 23.2458 60.3549 23.2959 60.1027C23.346 59.8513 23.183 59.6073 22.9308 59.5572C21.9454 59.3614 20.9591 59.2722 19.9856 59.2722C16.8793 59.2722 13.9014 60.1746 11.4198 61.4095C9.7433 62.2464 8.29442 63.2309 7.17975 64.2126C8.18878 60.9141 9.24152 57.4417 10.3325 53.8764C12.5463 52.0186 16.3083 49.9651 20.5166 48.3259C24.7903 46.6575 29.5359 45.409 33.6075 45.1576C33.8634 45.1412 34.0583 44.9209 34.0428 44.665C34.0264 44.4081 33.806 44.2142 33.5501 44.2306C29.3373 44.4928 24.5244 45.7669 20.1787 47.4607C16.4978 48.8978 13.1601 50.6299 10.8042 52.3356C12.407 47.1138 14.0899 41.7217 15.8366 36.4106C16.5825 35.9325 17.3848 35.2422 18.32 34.4645C19.8144 33.2205 21.6358 31.7516 23.9553 30.5951C26.2757 29.4376 29.0896 28.5879 32.5939 28.587C32.9299 28.587 33.2714 28.5943 33.6193 28.6107C33.8761 28.6225 34.0929 28.4249 34.1056 28.1681C34.1166 27.9122 33.9189 27.6946 33.6621 27.6827C33.3006 27.6654 32.9436 27.6581 32.5939 27.6581C27.7182 27.6563 24.0636 29.25 21.2888 31.0568C19.9 31.9602 18.728 32.9155 17.7263 33.7496C17.2217 34.1704 16.7591 34.5592 16.3375 34.8953C18.075 29.6671 19.8745 24.5418 21.7186 19.7653C22.8014 18.9439 24.0372 18.1234 25.3113 17.4641C26.6263 16.7829 27.9813 16.2765 29.2372 16.1053C29.4912 16.0698 29.6688 15.8358 29.6333 15.5817C29.5987 15.3276 29.3647 15.15 29.1106 15.1846C27.7045 15.3786 26.2629 15.9268 24.8841 16.639C24.0008 17.0962 23.1439 17.6225 22.3406 18.1717C24.3214 13.1557 26.3522 8.56952 28.4112 4.71464C28.5314 4.48788 28.4458 4.20648 28.2199 4.08628C27.9941 3.96516 27.7118 4.05076 27.5916 4.27661C25.4196 8.34549 23.2886 13.1957 21.2169 18.4913C20.787 17.7782 20.4109 16.9204 20.1058 16.1126C19.8982 15.5644 19.7206 15.0389 19.5731 14.5927C19.4247 14.1447 19.3081 13.7813 19.2134 13.5327C19.1205 13.2932 18.8518 13.1739 18.6123 13.2659C18.3728 13.3587 18.2535 13.6274 18.3464 13.8669C18.4238 14.0673 18.5431 14.4352 18.6916 14.8841C18.9156 15.5608 19.2125 16.4341 19.5868 17.3092C19.9246 18.0979 20.3235 18.8902 20.8043 19.5522C18.9201 24.4407 17.087 29.6807 15.3184 35.0191C13.2312 31.6305 10.6558 27.0343 8.97469 22.0092C8.89273 21.7652 8.63045 21.6349 8.38639 21.716C8.14324 21.797 8.01302 22.0602 8.09407 22.3034C9.92543 27.7765 12.7731 32.7033 14.9387 36.1693C13.7075 39.914 12.509 43.6969 11.347 47.4307C10.8042 49.1773 10.2697 50.9131 9.7433 52.6279C8.28713 50.7528 6.20078 47.8104 4.24283 44.7952C3.13363 43.0868 2.06541 41.3537 1.17386 39.7765C0.768613 39.0607 0.39979 38.3758 0.0810547 37.742V39.7264C0.173943 39.8939 0.268653 40.0633 0.365185 40.2345C3.01798 44.9227 7.15516 50.883 9.41272 53.7089C8.26436 57.4599 7.15972 61.1063 6.10425 64.5513C5.82103 63.9958 5.45858 63.3948 5.03056 62.7564C3.8221 60.9605 2.08271 58.8797 0.0810547 56.8744V58.2021C0.570997 58.7121 1.04181 59.2239 1.48896 59.732C2.57994 60.9724 3.52795 62.1863 4.26013 63.2755C4.94678 64.2954 5.44219 65.2107 5.68807 65.9073C5.31287 67.1276 4.94405 68.3206 4.58251 69.4808C4.06889 71.1282 3.56802 72.71 3.08263 74.2154C2.18289 72.364 0.99446 70.8495 0.0810547 69.8387V71.2684C0.976246 72.3713 1.98072 73.8438 2.6528 75.5368C1.73939 78.3253 0.879715 80.8141 0.0810547 82.9114V85.4221Z" fill="#FF6F00"></path>
    <path fill-rule="evenodd" clip-rule="evenodd" d="M51.2481 129.641C52.8818 128.356 55.2168 126.667 58.1209 124.751C70.4952 116.587 93.2684 104.286 117.041 100.978C117.295 100.942 117.472 100.708 117.437 100.454C117.401 100.2 117.167 100.023 116.913 100.058C100.912 102.288 85.4247 108.528 73.1862 114.869C67.0665 118.04 61.76 121.238 57.6091 123.976C54.104 126.288 51.4266 128.268 49.7673 129.641H51.2481Z" fill="#AD1457"></path>
    <path fill-rule="evenodd" clip-rule="evenodd" d="M62.1243 121.943C53.5039 120.465 49.9632 108.008 57.4416 95.5859C68.3651 100.384 70.1373 117.074 66.2487 119.428C64.727 120.349 62.1243 121.943 62.1243 121.943Z" fill="#E19100"></path>
    <path fill-rule="evenodd" clip-rule="evenodd" d="M83.2847 110.549C75.8955 107.618 75.0805 95.8755 84.0606 86.2314C92.8769 92.5461 91.3242 107.722 87.4228 109.086C85.8975 109.62 83.2847 110.549 83.2847 110.549Z" fill="#F8BBD0"></path>
    <path fill-rule="evenodd" clip-rule="evenodd" d="M70.9077 116.896C69.3796 121.826 72.4859 126.928 78.4518 129.642H90.3023C89.4545 119.766 77.9436 112.538 74.6433 114.59C73.27 115.442 70.9077 116.896 70.9077 116.896Z" fill="#F8BBD0"></path>
    <path fill-rule="evenodd" clip-rule="evenodd" d="M106.414 102.613C101.343 99.8652 101.767 91.334 109.067 85.1587C114.875 90.467 112.451 101.267 109.523 101.914C108.377 102.167 106.414 102.613 106.414 102.613Z" fill="#F8BBD0"></path>
    <path fill-rule="evenodd" clip-rule="evenodd" d="M116.133 98.4528C117.746 93.8876 124.462 92.4533 130.938 97.228C127.723 103.015 119.713 104.301 116.45 102.075C115.634 101.518 115.291 100.834 116.133 98.4528Z" fill="#F8BBD0"></path>
    <path fill-rule="evenodd" clip-rule="evenodd" d="M94.7364 106.257C92.0298 111.35 97.0977 118.224 106.595 119.335C108.501 111.701 100.509 104.042 97.7124 105.121C96.6178 105.542 94.7364 106.257 94.7364 106.257Z" fill="#F8BBD0"></path>
    <path fill-rule="evenodd" clip-rule="evenodd" d="M56.1503 59.7565C61.7974 52.2216 70.8659 34.0418 59.7447 30.0658C50.9558 26.9231 51.7408 38.7272 47.8969 39.9384C43.5138 41.3199 41.095 35.9688 36.5963 38.5487C30.2407 42.1951 33.1403 51.4584 27.4304 53.5885C21.7205 55.7186 17.4603 48.8913 12.6392 55.3233C6.67068 63.2872 19.6888 72.087 7.93106 77.8188C4.53151 79.4753 2.06268 79.2431 0.0810547 78.1393V117.819C1.52994 117.706 2.89686 117.399 4.11716 116.864C11.5273 113.616 10.4372 106.008 14.9378 105.363C19.4392 104.718 27.1909 110.551 32.3644 107.132C41.5567 101.057 29.0122 87.9245 35.3259 82.7546C41.6405 77.5847 48.1664 85.3455 54.8262 81.4387C61.485 77.5319 50.5023 67.2923 56.1503 59.7565Z" fill="#FFA000"></path>
    <path fill-rule="evenodd" clip-rule="evenodd" d="M0.0810547 95.1054C3.50427 92.7149 6.95664 92.0555 10.2023 91.6576C12.0154 91.4363 13.7594 91.3015 15.3831 90.9837C17.0059 90.6658 18.5185 90.1613 19.8263 89.1796C20.808 88.4474 21.3571 87.606 21.6349 86.7272C21.8452 86.0679 21.9144 85.3967 21.949 84.7182C22 83.6992 21.9782 82.6574 22.1767 81.5655C22.3762 80.4745 22.786 79.3289 23.7221 78.0767C24.5654 76.9538 25.3067 76.3492 26.0198 75.9594C26.5543 75.6671 27.0825 75.494 27.6462 75.3319C28.4886 75.0897 29.4175 74.8775 30.4393 74.3029C31.4628 73.7282 32.5575 72.7993 33.7805 71.1674C34.7522 69.8715 35.2695 68.7314 35.5372 67.6768C35.7403 66.8873 35.8031 66.1514 35.8313 65.4466C35.8714 64.3866 35.8395 63.3967 36.0408 62.3157C36.243 61.2347 36.6701 60.0472 37.6654 58.5765C40.351 54.626 43.4482 52.9549 46.1675 51.8876C47.5271 51.3539 48.7902 50.9814 49.8648 50.5507C50.4021 50.3349 50.893 50.1054 51.3246 49.8258C51.7563 49.5453 52.1315 49.2111 52.4129 48.7931C53.1341 47.7231 53.3636 46.7067 53.3627 45.8862C53.3609 44.6614 52.8737 43.8818 52.8464 43.8372C52.7098 43.6196 52.4229 43.5558 52.2062 43.6924C51.9894 43.829 51.9239 44.1159 52.0614 44.3326L52.0951 44.3108L52.0605 44.3317L52.0614 44.3326L52.0951 44.3108L52.0605 44.3317C52.0841 44.3681 52.4347 44.9774 52.4338 45.8862C52.432 46.5392 52.2608 47.3515 51.6415 48.2749C51.4467 48.5645 51.1762 48.815 50.8192 49.0463C50.1981 49.4524 49.3184 49.7839 48.2766 50.1445C46.7139 50.6882 44.7878 51.3047 42.7934 52.4677C40.7982 53.6297 38.7355 55.3436 36.8968 58.0556C35.9561 59.4416 35.4643 60.6473 35.2112 61.742C34.8342 63.3866 34.9817 64.7435 34.8624 66.0831C34.7413 67.4255 34.3998 68.7824 33.0365 70.6101C31.9992 71.9934 31.1004 72.7984 30.2872 73.313C29.6752 73.6991 29.1078 73.9259 28.5387 74.1071C27.689 74.3803 26.8184 74.5396 25.885 74.985C24.9524 75.4294 23.9917 76.1643 22.979 77.5194C22.0674 78.7342 21.5912 79.9035 21.3453 80.9945C20.9774 82.6319 21.1039 84.0817 20.9746 85.2992C20.9118 85.9094 20.7916 86.4576 20.5402 86.9667C20.288 87.4758 19.9037 87.9584 19.2689 88.4365C18.1169 89.3017 16.7555 89.7688 15.2046 90.0721C12.8815 90.5292 10.1567 90.603 7.25534 91.1731C4.93585 91.6293 2.4998 92.4152 0.0810547 93.9852V95.1054Z" fill="#FF6F00"></path>
    <path fill-rule="evenodd" clip-rule="evenodd" d="M69.4616 99.6867C73.1043 106.978 71.6499 124.267 54.023 129.33C53.656 129.436 53.2762 129.539 52.8919 129.641H0.0810547V113.272C9.68592 102.095 28.0269 87.9199 37.1382 84.8054C50.4258 80.262 63.3655 87.4837 69.4616 99.6867Z" fill="#E91E63"></path>
    <path fill-rule="evenodd" clip-rule="evenodd" d="M0.0810547 123.562C2.07816 122.81 4.41404 121.949 6.99033 121.014C15.8011 117.814 27.4304 113.748 37.9851 110.247C43.2615 108.496 48.2693 106.887 52.5203 105.599C56.7705 104.311 60.2674 103.343 62.5004 102.879C62.7518 102.828 62.9129 102.582 62.8601 102.33C62.8082 102.079 62.5623 101.918 62.3119 101.97C59.2602 102.605 54.0384 104.122 47.7557 106.101C38.3366 109.071 26.5525 113.082 16.2874 116.703C10.0238 118.912 4.33026 120.975 0.0810547 122.569V123.562Z" fill="#F8BBD0"></path>
    <path fill-rule="evenodd" clip-rule="evenodd" d="M31.6978 125.891C30.9601 127.015 29.198 127.164 27.7618 126.222C26.3248 125.28 25.7583 123.604 26.496 122.479C27.2336 121.355 28.9958 121.206 30.4328 122.148C31.869 123.09 32.4363 124.765 31.6978 125.891Z" fill="#F8BBD0"></path>
    <path fill-rule="evenodd" clip-rule="evenodd" d="M32.0256 105.53C31.787 106.672 30.2307 107.313 28.5478 106.96C26.8667 106.608 25.6974 105.397 25.9369 104.255C26.1764 103.112 27.7327 102.472 29.4138 102.824C31.0958 103.176 32.2661 104.387 32.0256 105.53Z" fill="#F8BBD0"></path>
    <path fill-rule="evenodd" clip-rule="evenodd" d="M22.2542 102.257C22.572 102.982 21.9637 103.949 20.8964 104.417C19.8281 104.884 18.7053 104.675 18.3875 103.95C18.0705 103.224 18.678 102.258 19.7462 101.79C20.8144 101.322 21.9373 101.531 22.2542 102.257Z" fill="#F8BBD0"></path>
    <path fill-rule="evenodd" clip-rule="evenodd" d="M40.8637 122.245C40.7644 122.733 40.1005 123.009 39.382 122.862C38.6635 122.714 38.1635 122.199 38.2628 121.711C38.363 121.224 39.0269 120.947 39.7445 121.096C40.463 121.242 40.9639 121.757 40.8637 122.245Z" fill="#F8BBD0"></path>
    <path fill-rule="evenodd" clip-rule="evenodd" d="M28.8101 96.4268C29.1789 96.8885 28.9276 97.7035 28.2482 98.2481C27.5679 98.7918 26.7173 98.8583 26.3476 98.3965C25.9797 97.9339 26.2301 97.1189 26.9104 96.5761C27.5898 96.0315 28.4413 95.966 28.8101 96.4268Z" fill="#F8BBD0"></path>
  </symbol>
</svg>