<svg width="0" height="0" class="hidden">
  <symbol fill="none" xmlns="http://www.w3.org/2000/svg" viewBox="0 0 99 152" id="plant">
    <path fill-rule="evenodd" clip-rule="evenodd" d="M22.7969 50.7927C18.9036 52.5572 16.8077 57.164 17.0705 61.4353C17.1842 63.9236 18.0155 66.2995 18.0652 68.7166C18.1363 72.3417 16.5448 75.1186 12.5804 74.7553C10.9605 74.5491 9.34772 73.9206 7.73495 73.5744C6.04403 73.2239 4.1968 73.1514 2.81138 74.0927C2.01566 74.5591 1.41886 75.3901 0.964158 76.2241C-0.492309 78.9363 -0.201016 82.4276 1.1844 85.1811C2.63377 88.0027 4.96411 90.2244 7.52181 92.0266C9.51824 93.4542 11.3299 94.3748 13.3264 96.0121C14.1505 96.6846 15.0315 97.7837 14.5057 98.6866C14.1931 99.3143 13.4045 99.4963 12.7011 99.3286C12.0688 99.1601 11.5218 98.7136 11.0457 98.1989C9.80242 97.1553 8.64436 95.9744 7.17368 95.4213C5.63906 94.7935 3.71368 95.0061 2.74034 96.3178C2.06539 97.2861 2.0867 98.4939 2.18617 99.7025C2.8398 104.842 5.8522 109.501 9.7669 112.988C12.8575 115.666 16.4666 117.722 20.1611 119.425C24.2037 121.286 26.3919 121.653 30.5837 119.682C30.7258 119.617 30.8679 119.552 30.9461 119.483C36.1538 116.916 38.7186 113.04 42.6333 108.999C44.4805 107.012 46.477 105.03 47.4219 102.439C48.0542 100.829 48.2674 98.9916 47.5498 97.4027C46.8251 95.813 44.9566 94.7452 43.3012 95.3218C42.001 95.7682 41.0277 97.1517 39.6707 97.3131C36.033 97.9515 35.6849 92.1155 36.4167 89.8014C37.4824 86.0804 42.072 84.9066 44.644 82.5208C46.9956 80.4093 48.0471 77.0416 47.4574 73.9654C47.4006 73.536 47.2798 73.1073 47.0027 72.8123C46.5906 72.4412 46.0294 72.3488 45.461 72.3282C44.5374 72.2898 43.4717 72.4618 42.4699 72.6367C40.7506 72.9972 38.9673 73.2858 37.5748 72.4483C36.2604 71.6172 34.6334 69.7809 33.8306 68.4003C31.5855 64.1233 35.0384 59.1454 33.5038 54.7547C32.4807 51.8022 29.3546 50.0512 26.1646 50C25.0278 50.0242 23.884 50.2645 22.7969 50.7927Z" fill="#F8BBD0"></path>
    <path fill-rule="evenodd" clip-rule="evenodd" d="M29.3621 160H20.7614V110.119L18 107.21L19.2191 105.925L20.7614 107.55V89.1484L18 86.2393L19.2191 84.9551L20.7614 86.5799V70H29.3621V93.8445L37.7809 84.9551L39 86.2393L29.3621 96.413V114.815L37.7809 105.925L39 107.21L29.3621 117.383V160Z" fill="#E91E63"></path>
    <path fill-rule="evenodd" clip-rule="evenodd" d="M63.8146 0.981812C58.4214 3.52572 55.4094 9.97552 55.7709 15.9127C55.9835 19.3741 57.0961 22.6603 57.2166 26.0224C57.2946 31.1613 55.133 35.0608 49.6123 34.4411C47.2523 34.1915 44.9987 33.3492 42.7379 32.8012C40.4842 32.3566 37.9188 32.2978 35.9132 33.5343C34.8076 34.3007 33.9926 35.3692 33.376 36.5398C31.3137 40.3436 31.6964 45.1953 33.6808 49.0912C35.6651 52.9908 38.9535 56.031 42.5466 58.4827C45.3672 60.5232 47.9043 61.8654 50.6115 64.1008C51.7809 65.0183 53.0282 66.5278 52.3053 67.894C51.7951 68.6746 50.7037 68.9455 49.7186 68.7228C48.8327 68.5073 48.0602 67.7983 47.387 67.1886C45.7428 65.6684 44.0986 64.0491 42.0434 63.3131C39.8889 62.4708 37.2172 62.7076 35.8919 64.5525C34.9777 65.8159 34.9351 67.5962 35.0911 69.2773C36.0124 76.412 40.2149 82.9313 45.6294 87.7957C49.9879 91.552 54.9559 94.4313 60.1364 96.8206C65.806 99.4227 68.8534 99.8885 74.6435 97.156C74.8419 97.0603 75.0403 96.9681 75.2388 96.8724C82.4321 93.2841 86.011 87.9333 91.475 82.2294C94.1043 79.5245 96.8399 76.6211 98.2077 73.0981C99.0439 70.8456 99.3983 68.2847 98.3636 66.0868C97.3289 63.8881 94.6996 62.3475 92.4105 63.0841C90.6175 63.7343 89.2922 65.6791 87.4071 65.9322C82.2478 66.8021 81.8438 58.6947 82.8077 55.5552C84.3101 50.3511 90.6671 48.6226 94.3027 45.2463C97.5202 42.3571 99.1148 37.6529 98.2218 33.3833C98.1368 32.7877 97.9525 32.1921 97.5698 31.788C96.9887 31.2811 96.202 31.1648 95.4083 31.1442C94.1327 31.018 92.6444 31.2811 91.2553 31.5448C88.8741 31.983 86.4008 32.4212 84.4448 31.2882C82.6021 30.1616 80.2918 27.539 79.25 25.5396C76.0254 19.6371 80.9225 12.735 78.7964 6.56238C77.3082 2.37855 72.9213 0.00622294 68.4778 0.00267792C66.8974 -0.0348993 65.3099 0.324565 63.8146 0.981812Z" fill="#B2EBF2"></path>
    <path fill-rule="evenodd" clip-rule="evenodd" d="M68.422 160H59.1878V80.6919L52 73.6449L53.3088 72.364L59.1878 78.1301V51.4456L52 44.3971L53.3088 43.1163L59.1878 48.8824V22H68.422V56.1323L81.6984 43.1163L83 44.3971L68.422 58.6969V85.38L81.6984 72.364L83 73.6449L68.422 87.9417V160Z" fill="#00BCD4"></path>
  </symbol>
</svg>